<?xml version="1.0" encoding="UTF-8" standalone="no"?>
<!-- Created with Inkscape (http://www.inkscape.org/) -->

<svg
   xmlns:dc="http://purl.org/dc/elements/1.1/"
   xmlns:cc="http://creativecommons.org/ns#"
   xmlns:rdf="http://www.w3.org/1999/02/22-rdf-syntax-ns#"
   xmlns:svg="http://www.w3.org/2000/svg"
   xmlns="http://www.w3.org/2000/svg"
   xmlns:sodipodi="http://sodipodi.sourceforge.net/DTD/sodipodi-0.dtd"
   xmlns:inkscape="http://www.inkscape.org/namespaces/inkscape"
   width="210mm"
   height="297mm"
   viewBox="0 0 744.09448819 1052.3622047"
   id="svg2"
   version="1.1"
   inkscape:version="0.91 r13725"
   sodipodi:docname="coin.svg">
  <defs
     id="defs4">
    <inkscape:path-effect
       effect="skeletal"
       id="path-effect4694"
       is_visible="true"
       pattern="m 0.00909045,0.42263472 c 3.59195995,-0.15123 6.51282995,0.18864 10.10478955,0.18864 1.38877,0 2.65314,-0.18864 4.04191,-0.18864 2.72871,0 6.3663,0.30453 9.09431,0.37729 1.00032,0.0267 2.0347,-0.0311 3.03143,0 2.10128,0.0654 4.01916,0.26505998 6.06287,0.37726998 4.70498,0.25834 9.5759,0.42273 14.14669,0.75457 1.56962,0.11395 2.53559,0.42531 4.04192,0.56591 0.60252,0.0562 1.46044,-0.0698 2.02096,0 0.62667,0.078 0.67364,0.25152 1.01047,0.37729 1.01048,0.37728 1.77809,0.78087 3.03143,1.13183 0.79269,0.22197 2.02095,0.37728 3.03144,0.56593 0.33682,0.0628 0.67365,0.12575 1.01048,0.18863 0.33683,0.0629 0.58442,0.14888 1.01047,0.18864 0.30127,0.0281 0.77231,-0.0444 1.01048,0 0.23818,0.0445 -0.23817,0.14418 0,0.18864 0.23818,0.0445 0.67365,0 1.01049,0 3.54862,0 0.80119,0.0889 3.03142,-0.18864 0.62668,-0.078 1.37512,-0.11629 2.02096,-0.18864 1.04138,-0.11664 1.977,-0.26479 3.03143,-0.37728 1.30788,-0.13951 2.83686,-0.20856 4.04192,-0.37728 1.5243,-0.21342 2.61782,-0.51824 4.04192,-0.75455 1.61196,-0.2675 3.52733,-0.46986 5.05238,-0.75457 1.52504,-0.2847 2.11286,-0.76314 4.04191,-0.94319 1.8076,-0.16873 4.04192,0 6.06287,0 1.68413,0 3.39118,0.0516 5.0524,0 0.46986,-0.0146 0.55857,-0.16052 1.01046,-0.18864 0.6391,-0.0398 1.34732,0 2.02096,0 1.34731,0 2.70815,-0.0356 4.04191,0 1.05444,0.0281 1.99811,0.14041 3.03143,0.18864 0.32679,0.0152 0.67367,0 1.01049,0 1.3473,0 2.69461,0 4.04192,0 0.67365,0 1.36038,-0.0247 2.02095,0 1.04445,0.0389 1.96629,0.18863 3.03143,0.18863 1.38877,0 2.65885,-0.16516 4.04192,-0.18863 2.34809,-0.0398 4.71556,0 7.07335,0 2.02095,0 4.06222,-0.0534 6.06286,0 0.47156,0.0126 0.54339,0.17119 1.01048,0.18863 1.32114,0.0493 2.6946,0 4.04191,0 0.67365,0 1.39549,-0.0468 2.02096,0 1.12759,0.0842 1.94521,0.27589 3.03144,0.37729 0.95268,0.0889 2.02094,0.12576 3.03142,0.18863 1.01049,0.0629 2.00728,0.13401 3.03144,0.18864 1.33535,0.0712 2.76544,0.0865 4.04192,0.18864 1.11624,0.0893 1.8793,0.30559 3.03143,0.37728 0.95862,0.0596 2.04057,-0.037 3.03143,0 0.73854,0.0275 1.34731,0.12576 2.02095,0.18865 1.01048,0.0628 1.98079,0.15595 3.03144,0.18863 0.99673,0.031 2.03111,-0.0266 3.03144,0 1.3748,0.0367 2.66386,0.15648 4.04191,0.18864 3.00802,0.0702 6.08141,-0.0625 9.0943,0 1.38027,0.0286 2.65314,0.18864 4.04192,0.18864 1.71748,0 3.33996,-0.16404 5.05239,-0.18864 5.37333,-0.0772 10.8114,0.1111 16.16764,0 0.47344,-0.01 0.58443,-0.14887 1.01049,-0.18864 0.60253,-0.0562 1.48202,0.0755 2.02095,0 5.21202,-0.72974 2.10891,-1.09381 12.12573,-1.32047 2.64363,-0.0598 39.78796,0.0499 44.46104,0 5.08881,-0.0543 10.06007,-0.37729 15.15718,-0.37729 5.09709,0 10.0763,0.3014 15.15717,0.37729 3.35753,0.0502 6.73652,0 10.10478,0 8.42065,0 16.8413,0 25.26195,0 3.70509,0 7.41017,0 11.11526,0 2.69461,0 5.40767,-0.0588 8.08382,0 3.08412,0.0677 6.01019,0.30953 9.09431,0.37727 2.67615,0.0588 5.38921,0 8.08382,0 2.69461,0.12576 5.34408,0.29204 8.08383,0.37729 1.32897,0.0414 2.6946,0 4.04191,0 1.01048,0 2.02095,0 3.03143,0 0.67365,0 1.36742,-0.0305 2.02096,0 0.73068,0.0341 1.29028,0.15453 2.02095,0.18863 0.65354,0.0304 1.36742,-0.0304 2.02096,0 0.73068,0.0341 1.29028,0.15454 2.02096,0.18865 1.30707,0.061 2.76374,-0.0796 4.04191,0 0.4519,0.0281 0.67365,0.12575 1.01048,0.18863 0.67365,0.12576 1.20403,0.28578 2.02095,0.37728 0.91335,0.10231 2.04248,0.11479 3.03144,0.18864 1.39859,0.10444 2.69461,0.25152 4.04191,0.37728 2.02096,0.18865 4.04191,0.37728 6.06287,0.56592 0.67365,0.0629 1.30644,0.14418 2.02095,0.18864 0.31955,0.0199 0.67366,0 1.01048,0 1.01048,0 2.02096,0 3.03144,0 2.02095,0 4.04191,0 6.06287,0 0.37961,0 5.02717,0.005 5.05239,0 0.23817,-0.0445 -0.30127,-0.16052 0,-0.18864 0.1581,-0.0147 4.76988,0 5.05239,0 4.37874,0 8.75747,0 13.13621,0 4.04191,0 8.08383,0 12.12574,0 1.01048,0 2.02096,0 3.03143,0 0.33683,0 0.70922,0.0281 1.01048,0 0.42606,-0.0397 0.55858,-0.16052 1.01048,-0.18864 0.67825,-0.0422 6.24064,0.0173 7.07335,0 2.0363,-0.0423 4.02656,-0.1464 6.06287,-0.18863 1.32625,-0.0275 6.09093,0.0367 7.07334,0 8.59869,-0.32106 16.1342,-0.8892 24.25148,-1.50913 3.07035,-0.23448 6.06287,-0.50303 9.0943,-0.75456 3.03144,-0.25152 5.86513,-0.61271 9.0943,-0.75455 2.62298,-0.11523 5.41003,0.0624 8.08383,0 20.08888,-0.46879 -2.00212,-0.37729 14.14669,-0.37729 3.70509,0 7.41017,0 11.11526,0 1.3473,0 2.79097,0.0934 4.04192,0 0.69929,-0.0522 0.33681,-0.31439998 1.01047,-0.37726998 0.90381,-0.0843 2.02096,0 3.03144,0 0.67364,0 1.34731,0 2.02095,0 2.35778,0 4.71557,0 7.07335,0 1.01047,0 2.04058,-0.037 3.03144,0 0.73853,0.0276 1.3473,0.12576 2.02094,0.18863 1.34732,0.0629 2.66711,0.15197998 4.04192,0.18863998 6.4839,0.17292 0,-0.46110998 11.11526,0 0.73523,0.0304 0.38381,0.29929 1.01048,0.37729 1.97142,0.24535 1.91646,-0.0845 3.03143,-0.18864 0.30127,-0.0281 0.67365,0 1.01048,0 0.67366,0 1.3473,0 2.02095,0 2.35778,0 4.71557,0 7.07335,0 32.74813,0 -13.08085,-0.0881 29.30387,0.37727 5.71616,0.0628 11.45208,0 17.17812,0 5.05238,0 10.1048,0 15.15718,0 5.05238,0 10.13568,-0.10416 15.15717,0 13.88851,0.28809 8.81665,0.86794 21.22004,0.56592 4.78211,-0.11644 9.32408,-0.56592 14.14669,-0.56592 3.8404,0 7.27486,0.56592 11.11527,0.56592 4.1663,0 7.99442,-0.46532 12.12573,-0.56592 3.67397,-0.0895 7.41017,0 11.11525,0 1.68413,0 3.36826,0 5.0524,0 2.02095,0 4.04191,0 6.06286,0 1.01047,0 2.04058,-0.037 3.03143,0 0.73855,0.0276 1.26779,0.18865 2.02096,0.18865 0.75317,0 1.28242,-0.16107 2.02096,-0.18865 1.65142,-0.0617 3.36827,0 5.05239,0 0.67366,0 1.38188,0.0398 2.02096,0 0.4519,-0.0281 0.53413,-0.18863 1.01048,-0.18863 0.75316,0 1.28242,0.16106 2.02096,0.18863 0.99085,0.037 2.05112,-0.0458 3.03142,0 0.46213,0.0216 0.54836,0.16708 1.01049,0.18865 3.84968,0.17967 3.95731,-0.33407 7.07335,-0.18865 2.06666,0.0964 3.96158,0.3119 6.06286,0.37729 1.99346,0.062 4.05195,-0.0376 6.06287,0 1.38188,0.0258 2.67203,0.14601 4.04191,0.18863 2.43744,0.0758 3.37184,-0.12584 6.06288,-0.18863 1.33689,-0.0312 2.6946,0 4.0419,0 9.32265,0 -1.27691,-0.061 8.08383,0.18863 2.00064,0.0534 4.06941,-0.0621 6.06287,0 1.05064,0.0327 1.99809,0.14041 3.03142,0.18864 0.32678,0.0152 0.67626,0.008 1.01049,0 2.36332,-0.0551 4.69162,-0.18864 7.07335,-0.18864 2.71558,0 5.37131,0.16453 8.08381,0.18864 4.37379,0.0388 8.76718,-0.0544 13.13622,0 15.87318,0.19756 17.93123,0.46359 33.34578,0.9432 4.69862,0.1462 9.48338,0.19591 14.1467,0.37728 3.44264,0.1339 6.68384,0.41386 10.10478,0.56592 3.66342,0.16284 7.51259,0.17259 11.11526,0.37728 4.18902,0.23801 8.01697,0.66061 12.12573,0.9432 2.30095,0.15825 4.72965,0.24266 7.07334,0.37728 2.03608,0.11696 4.01456,0.26803 6.06287,0.37728 0.32387,0.0173 0.69094,-0.0199 1.01049,0 0.71451,0.0445 1.29028,0.15454 2.02095,0.18865 0.65354,0.0304 1.3473,0 2.02096,0 2.02095,0 4.04192,0 6.06287,0 0.45508,0 2.72391,-0.0287 3.03143,0 0.42606,0.0397 0.55858,0.16051 1.01048,0.18863 0.63908,0.0398 1.3473,0 2.02096,0 1.01047,0 2.02095,0 3.03142,0 0.33683,0 0.69094,-0.0199 1.0105,0 0.7145,0.0445 1.28241,0.16106 2.02094,0.18864 0.99086,0.037 2.02096,0 3.03144,0 1.01047,0 2.09322,0.0701 3.03143,0 0.88455,-0.0661 1.28907,-0.26342 2.02096,-0.37727 1.29376,-0.20128 2.77446,-0.35889 4.04186,-0.56593 14.6303,-2.38982 -3.74484,0.38285 7.0734,-1.13184 0.8462,-0.11848 2.2045,-0.48874 3.0314,-0.56592 0.3013,-0.0281 0.6737,0 1.0105,0 0.3368,0 0.6737,0 1.0105,0 2.0209,0 4.0419,0 6.0629,0 1.3473,0 2.6946,0 4.0419,0 1.3473,0 2.705,-0.0312 4.0419,0 1.378,0.0321 2.6671,0.15198 4.0419,0.18865 1.0003,0.0266 2.021,0 3.0314,0 2.3578,0 4.7156,0 7.0734,0 1.6841,0 3.3682,0 5.0524,0 0.3368,0 0.7723,0.0444 1.0105,0 0.2381,-0.0445 -0.1507,-0.1324 0,-0.18865 0.213,-0.0796 0.8598,-0.10428 1.0104,-0.18864 0.2131,-0.11931 -0.213,-0.25797 0,-0.37728 0.042,-0.0234 2.8581,-0.54974 3.0315,-0.56591 0.3012,-0.0281 0.6909,0.0199 1.0104,0 2.122,-0.13206 3.9409,-0.43388 6.0629,-0.56593 0.9094,-0.0566 2.122,0.0566 3.0314,0 0.4519,-0.0281 0.5845,-0.14887 1.0105,-0.18864 0.3013,-0.0281 0.6737,0 1.0105,0 0.6737,-0.0629 1.4184,-0.10427 2.021,-0.18864 0.7621,-0.10671 1.2588,-0.27056 2.0209,-0.37727 4.0838,-0.57179 0.48,-0.0299 3.0314,-0.18865 0.7146,-0.0444 1.3217,-0.13642 2.021,-0.18863 2.672,-0.19954 5.5098,-0.32567 8.0838,-0.56592998 1.5064,-0.1406 2.494,-0.44207 4.0419,-0.56592 0.9288,-0.0743 2.0406,0.037 3.0315,0 0.7385,-0.0275 1.2903,-0.15453 2.0209,-0.18863 0.6536,-0.0305 1.3473,0 2.021,0 2.6946,0 5.3892,0 8.0838,0 2.3578,0 4.7156,0 7.0734,0 0.6736,0 1.3473,0 2.0209,0 0.6737,0 1.3819,-0.0398 2.021,0 0.4519,0.0281 0.5844,0.14887 1.0104,0.18863 0.3013,0.0281 0.6737,0 1.0105,0 0.3368,0.12576 0.4779,0.27786 1.0105,0.37729 0.2382,0.0445 0.7092,-0.0281 1.0105,0 0.8521,0.0795 1.1688,0.29772998 2.0209,0.37726998 0.3013,0.0281 0.7093,-0.0281 1.0105,0 0.4261,0.0397 0.5341,0.18865 1.0105,0.18865 0.1949,0 1.5303,-0.31622 2.021,-0.37728998 0.6266,-0.078 1.3473,-0.12576 2.0209,-0.18863 0.6737,-0.0629 1.3064,-0.14418 2.021,-0.18865 0.3195,-0.0199 0.6736,0 1.0104,0 0.6737,-0.0629 1.3473,-0.12576 2.021,-0.18864"
       copytype="single_stretched"
       prop_scale="1"
       scale_y_rel="false"
       spacing="0"
       normal_offset="0"
       tang_offset="0"
       prop_units="false"
       vertical_pattern="false"
       fuse_tolerance="0" />
    <inkscape:path-effect
       effect="bend_path"
       id="path-effect4692"
       is_visible="true"
       bendpath="m 175.19452,603.34948 507.23047,0"
       prop_scale="1.14"
       scale_y_rel="false"
       vertical="false" />
    <inkscape:path-effect
       effect="bend_path"
       id="path-effect4689"
       is_visible="true"
       bendpath="m 175.19452,603.34949 507.23047,0"
       prop_scale="1"
       scale_y_rel="false"
       vertical="false" />
    <filter
       style="color-interpolation-filters:sRGB"
       x="-0.25"
       width="1.5"
       y="-0.25"
       height="1.5"
       inkscape:menu="Non realistic 3D shaders"
       inkscape:menu-tooltip="Embossed chrome effect"
       inkscape:label="Chrome Emboss"
       id="filter4546">
      <feGaussianBlur
         in="SourceGraphic"
         result="result8"
         stdDeviation="4"
         id="feGaussianBlur4548" />
      <feComposite
         result="result18"
         operator="xor"
         in2="result8"
         id="feComposite4550" />
      <feComposite
         in2="result18"
         result="result16"
         operator="arithmetic"
         k1="1.6299999999999999"
         k3="0.5"
         id="feComposite4552" />
      <feComposite
         in="result16"
         operator="xor"
         result="result6"
         in2="result8"
         id="feComposite4554" />
      <feOffset
         in="result6"
         result="result17"
         id="feOffset4556" />
      <feDisplacementMap
         result="result4"
         scale="100"
         yChannelSelector="A"
         xChannelSelector="A"
         in="result17"
         in2="result16"
         id="feDisplacementMap4558" />
      <feComposite
         k3="1"
         in="result4"
         operator="arithmetic"
         result="result2"
         in2="result4"
         id="feComposite4560" />
      <feComposite
         operator="in"
         in="result6"
         result="fbSourceGraphic"
         in2="result2"
         id="feComposite4562" />
      <feComposite
         result="result14"
         operator="over"
         in2="fbSourceGraphic"
         id="feComposite4564" />
      <feComposite
         in="result14"
         operator="in"
         in2="result2"
         result="result15"
         id="feComposite4566" />
    </filter>
    <filter
       style="color-interpolation-filters:sRGB"
       x="-0.25"
       width="1.5"
       y="-0.25"
       height="1.5"
       inkscape:menu="Non realistic 3D shaders"
       inkscape:menu-tooltip="Embossed chrome effect"
       inkscape:label="Chrome Emboss"
       id="filter4579">
      <feGaussianBlur
         in="SourceGraphic"
         result="result8"
         stdDeviation="2"
         id="feGaussianBlur4581" />
      <feComposite
         result="result18"
         operator="xor"
         in2="result8"
         id="feComposite4583" />
      <feComposite
         in2="result18"
         result="result16"
         operator="arithmetic"
         k1="1"
         k3="0.5"
         id="feComposite4585" />
      <feComposite
         in="result16"
         operator="xor"
         result="result6"
         in2="result8"
         id="feComposite4587" />
      <feOffset
         in="result6"
         result="result17"
         id="feOffset4589" />
      <feDisplacementMap
         result="result4"
         scale="100"
         yChannelSelector="A"
         xChannelSelector="A"
         in="result17"
         in2="result16"
         id="feDisplacementMap4591" />
      <feComposite
         k3="1"
         in="result4"
         operator="arithmetic"
         result="result2"
         in2="result4"
         id="feComposite4593" />
      <feComposite
         operator="in"
         in="result6"
         result="fbSourceGraphic"
         in2="result2"
         id="feComposite4595" />
      <feComposite
         result="result14"
         operator="over"
         in2="fbSourceGraphic"
         id="feComposite4597" />
      <feComposite
         in="result14"
         operator="in"
         in2="result2"
         result="result15"
         id="feComposite4599" />
    </filter>
    <filter
       style="color-interpolation-filters:sRGB"
       x="-0.25"
       width="1.5"
       y="-0.25"
       height="1.5"
       inkscape:menu="Non realistic 3D shaders"
       inkscape:menu-tooltip="Embossed chrome effect"
       inkscape:label="Chrome Emboss"
       id="filter4627">
      <feGaussianBlur
         in="SourceGraphic"
         result="result8"
         stdDeviation="5"
         id="feGaussianBlur4629" />
      <feComposite
         result="result18"
         operator="xor"
         in2="result8"
         id="feComposite4631" />
      <feComposite
         in2="result18"
         result="result16"
         operator="arithmetic"
         k1="1"
         k3="0.5"
         id="feComposite4633" />
      <feComposite
         in="result16"
         operator="xor"
         result="result6"
         in2="result8"
         id="feComposite4635" />
      <feOffset
         in="result6"
         result="result17"
         id="feOffset4637" />
      <feDisplacementMap
         result="result4"
         scale="100"
         yChannelSelector="A"
         xChannelSelector="A"
         in="result17"
         in2="result16"
         id="feDisplacementMap4639" />
      <feComposite
         k3="1"
         in="result4"
         operator="arithmetic"
         result="result2"
         in2="result4"
         id="feComposite4641" />
      <feComposite
         operator="in"
         in="result6"
         result="fbSourceGraphic"
         in2="result2"
         id="feComposite4643" />
      <feComposite
         result="result14"
         operator="over"
         in2="fbSourceGraphic"
         id="feComposite4645" />
      <feComposite
         in="result14"
         operator="in"
         in2="result2"
         result="result15"
         id="feComposite4647" />
    </filter>
    <filter
       style="color-interpolation-filters:sRGB"
       x="-0.25"
       width="1.5"
       y="-0.25"
       height="1.5"
       inkscape:menu="Non realistic 3D shaders"
       inkscape:menu-tooltip="Embossed chrome effect"
       inkscape:label="Chrome Emboss"
       id="filter4661">
      <feGaussianBlur
         in="SourceGraphic"
         result="result8"
         stdDeviation="5"
         id="feGaussianBlur4663" />
      <feComposite
         result="result18"
         operator="xor"
         in2="result8"
         id="feComposite4665" />
      <feComposite
         in2="result18"
         result="result16"
         operator="arithmetic"
         k1="1"
         k3="0.5"
         id="feComposite4667" />
      <feComposite
         in="result16"
         operator="xor"
         result="result6"
         in2="result8"
         id="feComposite4669" />
      <feOffset
         in="result6"
         result="result17"
         id="feOffset4671" />
      <feDisplacementMap
         result="result4"
         scale="100"
         yChannelSelector="A"
         xChannelSelector="A"
         in="result17"
         in2="result16"
         id="feDisplacementMap4673" />
      <feComposite
         k3="1"
         in="result4"
         operator="arithmetic"
         result="result2"
         in2="result4"
         id="feComposite4675" />
      <feComposite
         operator="in"
         in="result6"
         result="fbSourceGraphic"
         in2="result2"
         id="feComposite4677" />
      <feComposite
         result="result14"
         operator="over"
         in2="fbSourceGraphic"
         id="feComposite4679" />
      <feComposite
         in="result14"
         operator="in"
         in2="result2"
         result="result15"
         id="feComposite4681" />
    </filter>
    <filter
       style="color-interpolation-filters:sRGB"
       x="-0.25"
       width="1.5"
       y="-0.25"
       height="1.5"
       inkscape:menu="Non realistic 3D shaders"
       inkscape:menu-tooltip="Embossed chrome effect"
       inkscape:label="Chrome Emboss"
       id="filter5657">
      <feGaussianBlur
         in="SourceGraphic"
         result="result8"
         stdDeviation="5"
         id="feGaussianBlur5659" />
      <feComposite
         result="result18"
         operator="xor"
         in2="result8"
         id="feComposite5661" />
      <feComposite
         in2="result18"
         result="result16"
         operator="arithmetic"
         k1="1"
         k3="0.5"
         id="feComposite5663" />
      <feComposite
         in="result16"
         operator="xor"
         result="result6"
         in2="result8"
         id="feComposite5665" />
      <feOffset
         in="result6"
         result="result17"
         id="feOffset5667" />
      <feDisplacementMap
         result="result4"
         scale="100"
         yChannelSelector="A"
         xChannelSelector="A"
         in="result17"
         in2="result16"
         id="feDisplacementMap5669" />
      <feComposite
         k3="1"
         in="result4"
         operator="arithmetic"
         result="result2"
         in2="result4"
         id="feComposite5671" />
      <feComposite
         operator="in"
         in="result6"
         result="fbSourceGraphic"
         in2="result2"
         id="feComposite5673" />
      <feComposite
         result="result14"
         operator="over"
         in2="fbSourceGraphic"
         id="feComposite5675" />
      <feComposite
         in="result14"
         operator="in"
         in2="result2"
         result="result15"
         id="feComposite5677" />
    </filter>
  </defs>
  <sodipodi:namedview
     id="base"
     pagecolor="#dbd9a6"
     bordercolor="#666666"
     borderopacity="1.0"
     inkscape:pageopacity="0"
     inkscape:pageshadow="2"
     inkscape:zoom="0.98994949"
     inkscape:cx="166.65096"
     inkscape:cy="536.66671"
     inkscape:document-units="px"
     inkscape:current-layer="layer1"
     showgrid="false"
     inkscape:window-width="1855"
     inkscape:window-height="1176"
     inkscape:window-x="65"
     inkscape:window-y="24"
     inkscape:window-maximized="1" />
  <metadata
     id="metadata7">
    <rdf:RDF>
      <cc:Work
         rdf:about="">
        <dc:format>image/svg+xml</dc:format>
        <dc:type
           rdf:resource="http://purl.org/dc/dcmitype/StillImage" />
        <dc:title />
      </cc:Work>
    </rdf:RDF>
  </metadata>
  <g
     inkscape:label="Layer 1"
     inkscape:groupmode="layer"
     id="layer1">
    <path
       style="fill:#dd7122;fill-opacity:1;stroke:#000000;stroke-width:5;stroke-miterlimit:4;stroke-dasharray:none;stroke-opacity:1"
       d="m 421.86046,347.14843 c 4.91395,-0.27559 9.51344,0.0712 14.41493,0.22652 1.91952,0.0608 3.8467,-0.0446 5.76682,0.0606 4.20622,0.23029 8.72026,0.89404 12.88792,1.41646 1.42714,0.17891 2.86972,0.28613 4.28844,0.49305 2.91439,0.42492 5.68496,1.02085 8.48978,1.5755 6.65748,1.31653 13.23409,2.78823 19.55173,4.64354 1.98472,0.58286 3.54265,1.31458 5.41574,1.94035 0.84949,0.28377 1.976,0.44927 2.76189,0.74091 0.82789,0.30719 0.85794,0.49923 1.27613,0.74503 1.32915,0.7812 2.14474,1.40354 3.79175,2.27361 0.96026,0.50728 2.65668,1.20523 3.90659,1.79098 0.43195,0.20233 0.86314,0.40594 1.29365,0.61062 0.43575,0.2072 0.72885,0.39129 1.28929,0.61741 0.39876,0.16086 1.03586,0.29429 1.34472,0.44527 2.17718,1.06508 -2.23696,-0.88616 -0.0598,0.17887 0.29977,0.14669 0.89719,0.3012 1.3413,0.45232 5.30764,1.80604 0.42154,0.26823 4.07244,1.22338 0.88085,0.23044 1.82519,0.53919 2.7271,0.79433 1.36979,0.38752 2.73082,0.73972 4.11183,1.16087 0.0281,0.009 5.51794,1.80424 5.41244,1.77224 1.13953,0.34564 4.51959,1.23692 5.53206,1.5485 2.50519,0.77092 4.41921,1.51633 6.80514,2.28555 1.94033,0.62557 3.15941,0.65113 5.56264,1.66551 2.41677,1.02008 5.06705,2.59339 7.63015,3.98729 2.16677,1.17835 4.12312,2.33909 6.25423,3.51418 0.63659,0.35101 0.71384,0.23186 1.33447,0.56098 0.80744,0.42815 1.64373,0.97213 2.46755,1.4687 1.64385,0.99086 3.29884,1.97201 4.88511,3.01929 1.22941,0.81163 2.33683,1.6618 3.51527,2.49314 0.37815,0.26671 0.79967,0.5273 1.1966,0.79143 1.59249,1.05971 3.17307,2.13729 4.74131,3.23258 0.78631,0.54918 1.59236,1.08874 2.34303,1.65618 1.27591,0.96427 2.06037,1.71658 3.36685,2.6852 1.49013,1.10478 3.20923,2.20103 4.68315,3.31878 2.66143,2.01834 5.24186,4.15919 7.80491,6.32233 2.20028,1.85697 4.40565,3.71417 6.4841,5.6684 0.42852,0.40292 0.51597,0.70206 0.93413,1.10589 0.96717,0.93399 2.00305,1.8776 3.01259,2.8185 0.39471,0.36804 0.78701,0.73713 1.1737,1.10863 0.69421,0.66695 1.45319,1.33959 2.05779,2.00031 1.03036,1.12576 1.81712,2.19806 2.7728,3.3088 0.77978,0.90626 2.01061,2.25883 2.84636,3.22148 0.92917,1.0703 1.85868,2.17354 2.78736,3.26752 1.24375,1.46508 2.54088,2.93443 3.6714,4.38493 0.58046,0.74474 1.89959,2.70854 2.50505,3.49286 -0.18615,-0.24111 2.8913,3.4968 2.73286,3.29178 0.63153,0.81706 1.10594,1.56401 1.64318,2.33764 0.89498,1.22997 1.55391,2.2111 2.4872,3.48032 0.84401,1.14778 1.74598,2.24325 2.57742,3.40696 1.1003,1.54026 2.12234,3.15433 3.19301,4.71843 2.40884,3.51901 4.90216,6.98953 7.14428,10.62975 0.93874,1.52405 1.90995,3.39539 2.84227,4.93445 1.21656,2.00829 2.58497,4.0141 3.76466,6.04005 3.82902,6.5758 7.12201,13.42636 10.378,20.26988 0.29496,0.61954 0.46874,0.6705 0.76109,1.21863 0.36843,0.69086 0.81772,1.99851 1.15786,2.60381 2.76366,4.91887 1.36136,2.12225 3.13249,5.20806 0.64655,1.12648 2.03816,3.86791 4.45089,10.21715 0.96617,2.54257 5.18312,14.22549 8.65731,29.14422 3.59661,15.44444 4.85635,27.43647 5.36484,32.10417 0.66004,6.0593 1.29216,12.12966 1.52594,18.21038 0,0 0,0 0,0 0.041,1.07229 0.0697,2.14807 0.0842,3.22764 0.0966,7.1952 -0.42473,14.34493 -1.02323,21.46884 -0.39897,4.74834 -0.83342,9.49831 -1.45318,14.23898 -1.54632,11.82808 -3.9255,23.54752 -7.09633,35.05081 -1.39516,5.06145 -2.94359,10.08105 -4.64178,15.04965 -1.23798,3.62211 -2.50016,7.23627 -3.9414,10.75612 -1.62896,3.97845 -3.51691,7.84136 -5.33611,11.72622 -1.61417,3.447 -3.19383,6.90355 -4.91727,10.32704 -1.80669,3.31236 -3.75162,6.61658 -5.69553,9.91516 -1.93957,3.29101 -0.89187,1.63755 -2.845,4.95049 -0.72493,1.22964 -1.46009,2.4532 -2.20541,3.67051 -0.49867,0.81448 -0.98553,1.65756 -1.50415,2.42622 -0.53312,0.79015 -1.1483,1.52397 -1.68962,2.3072 -0.54017,0.78174 -1.00771,1.61418 -1.55679,2.39009 -0.55031,0.77746 -1.18127,1.49655 -1.73967,2.26689 -1.11132,1.53316 -2.10543,3.22236 -3.24405,4.687 -0.38841,0.4997 -0.65635,0.70501 -0.98062,1.05032 -0.67505,0.71887 -1.20423,1.18768 -1.97712,2.08129 -0.74551,0.86194 -1.90039,2.35354 -2.70498,3.30143 -1.25991,1.48432 -2.52594,2.86343 -3.78904,4.2467 -1.91748,2.0999 -3.8692,4.16435 -5.85431,6.19195 -0.68372,0.69833 -1.28153,1.26985 -1.99619,2.01526 -0.30868,0.32194 -0.62403,0.70947 -0.93586,1.0609 -0.93898,1.0582 -1.88727,2.10825 -2.84482,3.14999 -0.83784,0.9115 -1.68278,1.81664 -2.53474,2.71528 -1.09518,1.1556 -2.20171,2.30016 -3.31933,3.43357 0.004,-0.004 -5.3523,5.36105 -5.03936,4.96354 -0.20991,0.2623 0.41541,-0.17532 0.13033,0.13624 -0.57095,0.62366 -4.42958,4.13664 -5.18436,4.81807 -4.55279,4.11033 -9.25881,8.04993 -14.10329,11.81222 -4.47183,3.47289 -9.06163,6.7947 -13.75778,9.96023 -1.17404,0.79139 -2.35472,1.573 -3.54186,2.34477 -0.39391,0.25608 -0.85107,0.51805 -1.1893,0.76848 -0.45785,0.33895 -0.59595,0.57425 -1.09256,0.92111 -1.82577,1.27519 -6.38673,3.89375 -8.47735,5.15127 -2.42922,1.46118 -4.85262,2.93738 -7.33145,4.31908 -3.75401,2.09247 -5.45346,2.76961 -8.8321,4.53701 -10.26075,5.3673 -20.78158,10.3016 -30.99098,14.35411 -4.00719,1.5906 -8.02844,3.11374 -12.06399,4.50815 -3.97781,1.37444 -7.95486,2.77512 -12.30835,3.91017 -3.6537,0.95262 -7.47422,1.55234 -11.24348,2.29948 -10.76673,2.13414 -16.63166,2.73747 -11.94569,2.23887 32.26251,-3.43284 -27.35703,2.87255 -7.90316,0.92934 -5.24368,0.52378 -10.50521,0.88178 -15.77564,1.07001 -0.70818,0.0253 -1.43183,0.0353 -2.1572,0.0435 -1.23474,0.0135 -2.47609,0.0213 -3.59453,0.0933 -1.40556,0.0905 -0.0653,0.29205 -1.4357,0.39012 -1.30351,0.0932 -2.86522,0.005 -4.32013,-0.0115 -0.95987,-0.0109 -1.9196,-0.0275 -2.87915,-0.0495 -3.35841,-0.0772 -6.71451,-0.22249 -10.06593,-0.43487 -1.4416,-0.0914 -2.89702,-0.15918 -4.30621,-0.30999 -1.03596,-0.11089 -1.9116,-0.28642 -2.85008,-0.43522 -1.85324,-0.23207 -3.81192,-0.52654 -5.69933,-0.77946 -4.88554,-0.6547 -4.25732,-0.52526 -5.4048,-0.5711 -0.38289,-0.0153 -2.91686,-0.19523 -10.23033,-1.71868 -0.98159,-0.20437 -0.52619,-0.40057 -1.34566,-0.62665 -2.80495,-0.77381 -2.58891,-0.40481 -4.26373,-0.6287 -0.42715,-0.0571 -0.9363,-0.18967 -1.40682,-0.28703 -0.93736,-0.19397 -1.87364,-0.39313 -2.8088,-0.59748 -3.27308,-0.71523 -6.53244,-1.49396 -9.77571,-2.33529 -9.5625,-2.48059 -17.3054,-5.1262 -16.94379,-5.00609 -1.36573,-0.45365 0.54556,0.18154 1.89094,0.59997 1.87186,0.58219 1.93309,0.56999 -0.52195,-0.28347 -1.13652,-0.3951 -11.56994,-3.89657 -23.58693,-9.27139 -7.4105,-3.31453 -14.72785,-6.86355 -21.84028,-10.80824 -6.26931,-3.4771 -12.3937,-7.21394 -18.34995,-11.20163 -5.97047,-3.99721 -11.827,-8.15866 -17.3411,-12.70673 -5.3089,-4.37881 -8.55823,-7.52982 -10.04455,-8.99888 -2.57294,-2.54308 -2.06466,-2.12484 -5.05519,-5.00891 -0.97811,-0.94359 -4.15575,-3.9746 -6.8078,-6.59964 -4.74012,-4.69186 -9.52216,-9.32845 -13.83272,-14.52066 -3.36164,-4.0492 -6.14234,-8.54111 -9.23252,-12.77204 -3.35554,-4.59426 -7.02237,-9.15517 -10.13152,-13.88858 -2.87286,-4.3736 -5.47806,-8.95751 -8.02225,-13.57748 -1.1529,-2.09353 -2.27707,-4.20296 -3.37215,-6.32745 -1.31408,-2.54938 -2.58625,-5.12044 -3.81586,-7.71173 -0.617,-1.30026 -1.26207,-2.60139 -1.81243,-3.90192 -0.43701,-1.03274 -0.53946,-1.65036 -1.00003,-2.69377 -0.4606,-1.04349 -0.84784,-1.53523 -1.3164,-2.55412 -0.98469,-2.14115 -1.84817,-4.39659 -2.73298,-6.62905 -0.34939,-0.88152 -0.68331,-1.84698 -1.04216,-2.67212 -0.24795,-0.57023 -0.45467,-0.65945 -0.68651,-1.27369 -0.36718,-0.97286 -0.4978,-1.7901 -0.8216,-2.75543 -0.45499,-1.35647 -1.0221,-2.70007 -1.44151,-4.05326 -0.14161,-0.45689 -0.14818,-0.95997 -0.2871,-1.41704 -1.11605,-3.67193 -2.51601,-6.78821 -3.22772,-9.50157 -0.71121,-2.71131 -1.29245,-5.61215 -1.95277,-8.37973 -0.66355,-2.78094 -1.4371,-5.52224 -2.03723,-8.3439 -0.40141,-1.88719 -0.67859,-3.75542 -1.01763,-5.63568 -1.61953,-8.98119 -0.0247,0.92406 -1.75165,-8.40665 -0.34552,-1.86682 -0.61097,-3.76395 -0.88521,-5.65691 -1.64869,-11.38017 -0.0578,-1.26029 -0.75321,-5.65592 0.20034,1.26634 0.017,0.0455 -0.44188,-5.73077 -0.22659,-2.85277 -0.57449,-5.70483 -0.69262,-8.55704 -0.0605,-1.46044 -0.0275,-2.85975 -0.0461,-4.29603 -0.006,-0.46158 -0.0346,-0.95782 -0.0614,-1.42911 -0.0607,-1.07298 -0.12251,-2.14726 -0.17803,-3.21516 -0.11673,-2.2516 -0.20735,-4.51103 -0.20472,-6.79599 0.004,-3.82331 0.26235,-7.62759 0.46718,-11.43424 0.33285,-6.18723 0.76559,-12.37222 1.57032,-18.51152 1.34723,-10.2784 3.07179,-18.1711 4.34655,-23.40577 1.24559,-5.11484 3.36461,-12.98961 6.53731,-22.35179 2.14076,-6.31703 4.42715,-12.57094 7.05754,-18.64027 1.89614,-4.37512 4.03619,-8.59718 6.16659,-12.81461 2.35996,-4.67189 4.71819,-9.34345 7.35098,-13.76425 2.94274,-4.94123 6.1626,-9.57175 9.39009,-14.16541 1.88474,-2.68254 3.74858,-5.36845 5.7486,-8.03392 1.68656,-2.2477 3.44916,-4.45532 5.21209,-6.65863 0.28789,-0.35976 0.55098,-0.77715 0.8395,-1.12893 -1.23778,1.50917 3.07265,-3.62133 1.84782,-2.12874 0.57243,-0.69774 1.14833,-1.49018 1.72236,-2.22207 1.73506,-2.21218 3.50815,-4.3945 5.31869,-6.54547 0.52347,-0.6219 2.3135,-2.77127 2.74383,-3.20277 0.45519,-0.45653 0.59665,-0.44338 1.06842,-0.93222 0.61187,-0.63396 1.24872,-1.40697 1.87113,-2.09604 0.9417,-1.04257 1.89262,-2.07694 2.85269,-3.10291 0.32092,-0.34296 0.64214,-0.71324 0.96313,-1.0232 0.0427,-0.0412 0.085,-0.0817 0.12713,-0.12152 0.69404,-0.65741 1.23211,-1.07311 1.95175,-1.77715 0.96598,-0.94506 1.9805,-2.02613 2.95674,-2.99911 0.97798,-0.97471 2.13422,-2.00953 3.00855,-2.94645 0.87189,-0.93432 1.0809,-1.39278 1.77571,-2.20954 1.25023,-1.4697 2.5079,-2.80189 3.76288,-4.22487 4.12575,-4.67799 8.81901,-9.59442 4.63979,-5.23374 -5.43593,5.67196 0.88753,-0.84174 2.10878,-2.07679 0.89731,-0.90744 2.01816,-2.27766 2.94073,-3.12137 0.31429,-0.2874 0.73812,-0.58844 1.11057,-0.88279 0.37102,-0.29321 0.74287,-0.58538 1.11555,-0.8765 2.23597,-1.74663 4.50165,-3.4555 6.7956,-5.12595 1.52924,-1.11359 3.07102,-2.21009 4.62491,-3.28931 1.55712,-1.08146 3.11122,-2.17289 4.69754,-3.18559 1.60099,-1.02214 3.24788,-1.94203 4.86815,-2.92123 1.1597,-0.70095 2.44721,-1.52829 3.61742,-2.23936 2.82806,-1.71846 5.68955,-3.38241 8.58216,-4.99081 2.06607,-1.14882 4.14808,-2.26933 6.24518,-3.36117 0.41693,-0.21707 0.98527,-0.46102 1.26005,-0.65165 0.27739,-0.19257 -0.24901,-0.0208 -0.0862,-0.16776 0.22245,-0.20086 1.0352,-0.65011 1.17916,-0.81337 -0.10236,0.11604 -0.068,-0.45254 -0.17051,-0.33645 0.0858,-0.0969 3.30458,-2.25229 3.57551,-2.40691 0.37622,-0.21473 0.87969,-0.40378 1.28386,-0.62001 2.51848,-1.34729 4.97675,-2.82265 7.54566,-4.08992 1.2807,-0.63179 2.64818,-1.08319 3.93814,-1.69342 0.62148,-0.29397 0.66192,-0.43586 1.24673,-0.72435 0.38495,-0.18987 0.87972,-0.3627 1.3228,-0.54325 0.83706,-0.40724 1.84436,-0.85961 2.58516,-1.24012 0.85531,-0.43934 1.67138,-0.95799 2.53303,-1.38855 2.63647,-1.31743 2.74129,-1.32646 2.6888,-1.2762 -0.0894,0.0856 -0.38802,0.28564 1.275,-0.40254 0.72457,-0.29978 1.93218,-0.85228 2.63848,-1.14268 3.64545,-1.49886 7.18008,-2.76501 10.74828,-4.10393 1.84445,-0.69209 3.44656,-1.49403 5.37222,-2.14803 1.28019,-0.43477 2.79288,-0.72559 4.17449,-1.12424 0.80958,-0.23353 1.94645,-0.66656 2.74746,-0.89369 0.90137,-0.25558 1.86388,-0.45783 2.80283,-0.68015 3.74201,-0.88601 7.5037,-1.68856 11.28165,-2.40611 3.30573,-0.62787 6.62391,-1.19066 9.95221,-1.68735 0.95091,-0.14191 1.90265,-0.27842 2.85516,-0.40951 0.95745,-0.13177 1.94478,-0.30199 2.85994,-0.37701 0.61351,-0.0503 0.87608,0.0423 1.45396,0.0109 0.42766,-0.0233 0.95656,-0.1136 1.43158,-0.16795 0.49876,0.0713 0.70116,0.19803 1.47326,0.21506 0.33322,0.007 1.01019,-0.13567 1.43137,-0.1513 0.96639,-0.0359 1.93483,0.1221 2.8995,0.0976 0.47754,-0.0122 0.95415,-0.11696 1.43182,-0.12637 0.62313,-0.0123 0.75684,0.12477 1.44753,0.0698 0.2044,-0.0163 2.2163,-0.49005 2.8397,-0.58741 0.89617,-0.13998 1.8953,-0.24847 2.86152,-0.36649 0.94496,-0.11543 1.86209,-0.24445 2.86841,-0.33333 0.45589,-0.0403 0.9586,-0.0413 1.44013,-0.0599 0.95792,-0.1 1.91689,-0.19436 2.87686,-0.28313 z"
       id="path4685"
       inkscape:path-effect="#path-effect4694"
       inkscape:original-d="m 421.9464,350.3609 c 67.23889,-1.79881 132.43842,23.18659 181.25544,69.45971 48.81702,46.27313 77.2527,110.0435 79.05151,177.2824 1.79881,67.23888 -23.1866,132.43841 -69.45971,181.25543 -46.27312,48.81702 -110.04351,77.2527 -177.28239,79.05151 -67.23888,1.79881 -132.43841,-23.18659 -181.25543,-69.45971 -48.81704,-46.27312 -77.25271,-110.0435 -79.05153,-177.28239 -1.79881,-67.23889 23.1866,-132.43841 69.45973,-181.25544 46.27312,-48.81702 110.0435,-77.2527 177.28238,-79.05151 z"
       inkscape:export-filename="/home/jimm/coppercoin64.png"
       inkscape:export-xdpi="11.11"
       inkscape:export-ydpi="11.11"
       inkscape:connector-curvature="0" />
    <g
       id="g4654"
       style="stroke-width:10;stroke-miterlimit:4;stroke-dasharray:none;filter:url(#filter4661)"
       transform="translate(-9.0913729,24.243661)">
      <g
         style="stroke-width:10;stroke-miterlimit:4;stroke-dasharray:none"
         id="g4622">
        <path
           style="fill:none;fill-rule:evenodd;stroke:#000000;stroke-width:10;stroke-linecap:butt;stroke-linejoin:miter;stroke-miterlimit:4;stroke-dasharray:none;stroke-opacity:1"
           d="m 410.92188,448.19141 c -0.23868,-0.0335 -0.54825,0.0996 -0.80079,0.0996 l -1.00976,0 c -0.45493,0 -2.72187,-0.15371 -3.0293,0 -0.42591,0.21296 -0.6155,0.74561 -1.01172,1.00976 -0.62647,0.41764 -1.48714,0.47737 -2.01953,1.00977 -0.2381,0.23809 0,0.675 0,1.01172 l 0,2.01953 0,4.04101 0,2.01953 c 0,0.33672 -0.0817,0.68311 0,1.00977 0.16451,0.65806 0.46205,1.60971 0.82227,2.55273 -2.62025,0.63659 -5.35751,0.84669 -8.05664,1.11133 -0.26682,-0.55384 -0.65308,-1.05882 -0.84766,-1.64258 -0.10648,-0.31944 0.15058,-0.7086 0,-1.00976 -0.21296,-0.42592 -0.79681,-0.5858 -1.00977,-1.01172 -0.15058,-0.30117 0.2381,-0.77167 0,-1.00977 -0.23809,-0.23809 -0.85918,0.30117 -1.00976,0 -0.30117,-0.60234 0.30117,-1.4172 0,-2.01953 -0.15058,-0.30117 -0.77168,0.23809 -1.00977,0 -0.2381,-0.2381 0.23809,-0.77166 0,-1.00976 -0.2381,-0.23809 -0.69033,0.10648 -1.00976,0 -0.71429,-0.23809 -1.3072,-0.77362 -2.02149,-1.01172 -0.63888,-0.21296 -1.41719,0.30117 -2.01953,0 -0.42591,-0.21296 -0.558,-0.85919 -1.00976,-1.00977 -4.5985,0 -0.0586,0.47658 -3.03125,-1.00976 -0.60233,-0.30117 -1.54335,0.47619 -2.01954,0 -0.25824,1.033 -0.75346,1.99825 -1.01171,3.03125 -0.0817,0.32667 0.10648,0.69032 0,1.00976 -0.2381,0.71428 -0.77167,1.30524 -1.00977,2.01953 -0.10647,0.31944 0,0.67306 0,1.00977 l 0,2.02148 0,2.01953 c 0,0.64649 -0.33806,1.39641 -0.0352,1.95118 -2.04733,0.71531 -4.03151,1.74501 -6.02539,3.09961 -0.32767,0.0297 -0.61202,0.074 -0.91992,0.10937 -0.0289,-0.0372 -0.0686,-0.0669 -0.0898,-0.10937 -0.15059,-0.30117 0.23809,-0.77167 0,-1.00977 -0.47619,-0.47619 -1.54334,0.47619 -2.01953,0 -0.23809,-0.23809 0.2381,-0.77166 0,-1.00976 -0.23809,-0.23809 -0.675,0 -1.01172,0 -0.33672,0 -0.7086,-0.15058 -1.00977,0 -0.42592,0.21296 -0.61354,0.74562 -1.00976,1.00976 -0.62647,0.41765 -1.48713,0.47737 -2.01953,1.00977 -0.2381,0.23809 0.10648,0.69032 0,1.00976 -0.2381,0.71428 -0.82911,1.29105 -1.01172,2.02149 -0.16334,0.65333 0.21296,1.38065 0,2.01953 -0.15059,0.45175 -0.79681,0.58384 -1.00977,1.00976 -0.0208,0.0418 -0.0121,1.59992 0,2.39453 -2.75205,3.49508 -7.93009,8.50314 -7.47265,6.21875 -0.19738,0.17956 -0.40443,0.38026 -0.60743,0.57227 l 0,-1.10352 c 0,-0.28241 0.079,-4.89273 0,-5.05078 -0.15058,-0.30117 -0.77362,0.23809 -1.01172,0 -0.23809,-0.2381 0.15059,-0.70859 0,-1.00976 -0.21296,-0.42592 -0.7968,-0.58385 -1.00976,-1.00977 -0.15059,-0.30117 0.15058,-0.71055 0,-1.01172 -0.21296,-0.42592 -0.58386,-0.7968 -1.00977,-1.00976 -0.0529,-0.0264 -2.97841,-0.0264 -3.03125,0 -0.42592,0.21296 -0.58385,0.7968 -1.00976,1.00976 -0.30117,0.15059 -0.7086,-0.15058 -1.00977,0 -0.42591,0.21296 -0.67304,0.67501 -1.00976,1.01172 -0.33672,0.33672 -0.79681,0.58385 -1.00977,1.00977 -0.15059,0.30117 0.23809,0.77166 0,1.00976 -0.2381,0.23809 -0.69229,-0.10648 -1.01172,0 -0.73821,0.24607 -2.567,1.09492 -3.02929,2.01953 -0.1506,0.30117 0.15057,0.71055 0,1.01172 -0.21297,0.42591 -0.79682,0.58385 -1.00977,1.00977 -0.15059,0.30117 0,0.67304 0,1.00976 l 0,2.01954 c 0,1.68358 -1.05173,3.73612 0,5.05078 l 10.4082,-0.82032 c -0.92039,1.13197 -1.82983,2.32815 -2.69531,3.5879 -0.51215,-0.2984 -1.15331,-0.4134 -1.65234,-0.7461 -0.33088,-0.22058 -1.86909,-1.99098 -2.02149,-2.02148 -1.32072,-0.26414 -3.19768,1.05173 -4.03906,0 -0.41842,2.26541 -2.31697,3.91769 -3.03125,6.06054 -0.10648,0.31944 0.10648,0.69228 0,1.01172 -0.2381,0.71428 -0.77168,1.30525 -1.00977,2.01953 -0.18998,0.56993 0,2.36747 0,3.03125 0,0.45493 -0.15372,2.72187 0,3.0293 0.21295,0.42592 0.79681,0.58385 1.00977,1.00977 0.15058,0.30117 -0.15059,0.71054 0,1.01171 0.57903,1.15806 2.10848,1.40436 3.03125,2.01954 0.39621,0.26414 0.58384,0.7968 1.00977,1.00976 0.19407,0.097 0.43068,0.0129 0.65624,-0.0234 l 1.47657,20.20118 c -0.25801,7.40471 -0.0423,14.83514 -0.11328,22.25 2.10247,6.99679 0.46498,14.86343 1.00976,22.22265 3.18526,7.04231 11.75413,4.4491 9.0918,13.5293 0.72843,3.40846 -1.97249,9.19908 2.54883,9.67187 2.36181,2.25627 5.27103,3.36415 6.54297,7.10352 4.83616,0.70717 8.31559,6.11134 10.10156,9.0918 -3.54819,4.30985 -3.73534,10.35988 -7.07031,14.14062 -2.4958,0.0418 -1.48605,3.86512 -1.5293,6.32227 l 0.51758,-0.25977 c -0.87025,6.27723 -5.66012,12.95808 -10.10157,17.17188 -3.84608,5.92742 -7.71336,11.12632 -11.11132,17.17187 -2.85972,6.94574 -6.56083,6.06155 -6.0918,14.57422 -0.75485,4.94404 -0.0982,10.63035 6.0918,6.64063 6.90196,0.95298 10.42558,-2.3884 13.64453,-0.42774 7.37484,-1.29266 15.17307,-0.24865 22.7207,-0.58398 8.33275,2.00298 17.22249,0.58209 25.81055,1.01172 4.08809,-1.00289 8.51756,-1.20695 13.11133,-1.01172 6.65537,0.28002 13.16595,-0.36228 19.66796,-1.00977 7.25525,0.37326 15.12879,-1.06956 21.71875,1.51563 3.91164,1.48588 9.23172,-0.4817 13.12696,1.02343 7.52886,2.72892 15.21637,1.49326 23.62304,1.50196 6.96439,-1.24016 13.99311,-3.49721 21.35352,-3.03125 3.82539,0.28616 8.1221,-0.61767 11.5957,0.50586 5.05199,2.3259 9.40938,-1.28114 7.50196,-1.01758 1.84612,-4.02556 4.13796,-12.3936 -2.95508,-10.59961 -0.70821,-3.39026 -6.27331,-3.21186 -8.08203,-6.06055 1.02496,-7.80855 -5.67835,-9.92193 -10.10157,-12.62695 -2.94753,-2.82488 -7.44679,-8.06522 -10.03515,-11.66406 -1.74462,-4.18158 -2.34666,-5.89448 -5.08399,-10.58203 -1.82859,-1.49384 -4.34847,-5.48891 -4.94921,-8.11329 -2.69329,-1.66988 -3.57304,-3.48655 -5.18555,-5.50195 -5.81542,-0.66181 -1.94323,-9.73949 -3.03125,-14.30078 -2.51908,-8.17043 8.81634,-3.71428 11.58008,-7 6.98003,2.18446 10.32043,-2.2346 12.95312,-4.9668 -0.53752,-2.53933 9.99982,-8.94585 5.77149,-14.13672 0.435,-5.05493 1.37653,-9.93191 1.0332,-15.3164 2.35886,-0.99756 5.0142,-0.39915 7.34765,-1.72852 2.27017,0.89835 5.50739,-2.05113 2.30665,-3.57422 -1.67906,-2.26866 0.91121,-5.79021 -2.75196,-6.51953 -0.26464,-2.7602 -3.78244,-3.96262 -2.90625,-7.20312 0.37848,-2.62306 -0.65201,-3.66671 -1.85351,-5.81836 0.61012,-5.48525 1.75814,-10.77549 -1.1543,-14.38867 -3.46122,-3.92091 -3.00506,-11.2055 -6.15625,-15.59571 -1.13751,-6.03145 -6.92086,-10.18381 -10.90234,-15.60547 -2.73594,-1.40855 -4.2846,-5.27337 -6.27735,-4.53711 -1.99427,-2.78986 -3.16293,-5.65628 -4.42187,-8.31054 0.12998,-0.0795 0.28075,-0.19676 0.48242,-0.39844 0.23809,-0.23809 -0.2381,-0.77167 0,-1.00977 0.23809,-0.23809 0.77363,0.2381 1.01172,0 0.0458,-0.0458 0,-4.5745 0,-5.05078 l -5.39063,0.42578 c -0.50539,-0.50898 -1.05869,-0.99044 -1.68164,-1.43554 -0.76847,-0.69178 -1.85441,-1.31951 -3.11133,-1.9043 0.0224,-0.37481 0.082,-0.75579 0.082,-1.12695 0,-0.33672 -0.15059,-0.7086 0,-1.00977 0.42591,-0.85184 1.59361,-1.16769 2.01953,-2.01953 0.15371,-0.30742 0,-2.57632 0,-3.03125 0,-0.52823 0.13281,-3.7754 0,-4.04102 -0.21296,-0.4259 -0.79681,-0.58384 -1.00977,-1.00976 -0.15059,-0.30117 0.23809,-0.77168 0,-1.00977 -0.2381,-0.2381 -0.67305,0 -1.00976,0 -2.57403,0 -1.34718,1.17751 -3.03125,2.01953 -0.30117,0.1506 -0.77168,-0.23809 -1.00977,0 -0.5324,0.5324 -0.47737,1.48909 -1.00977,2.02149 -0.23809,0.23809 -0.67304,0 -1.00976,0 0,0.67343 0.21296,1.38066 0,2.01953 -0.15058,0.45176 -0.86114,0.55801 -1.01172,1.00977 -0.23563,0.70688 -0.0748,2.23223 0.0254,3.65234 -1.80026,-0.5642 -3.56708,-1.10844 -5.07617,-1.63086 -1.40924,-1.14981 -3.15653,-1.87372 -5.08203,-2.4082 -0.0425,-0.2237 -0.0605,-0.43959 0.0312,-0.62305 0.21296,-0.42591 0.79876,-0.58385 1.01172,-1.00976 0.043,-0.0861 0.043,-3.95491 0,-4.04102 -0.21296,-0.42592 -0.86113,-0.55802 -1.01172,-1.00977 -0.21296,-0.63888 0.21296,-1.3826 0,-2.02148 -0.0751,-0.22526 -3.74332,-3.89118 -4.03907,-4.03906 -1.33672,-0.66836 -2.18646,1.45633 -3.03124,2.01953 -0.62647,0.41764 -1.48714,0.47736 -2.01954,1.00976 -0.23809,0.2381 0,0.67306 0,1.00977 0,2.02031 0.33515,0.33828 -1.01172,1.01172 -2.23349,1.11675 -0.31308,0.62617 -1.00976,2.01953 -0.21296,0.42592 -0.85918,0.55801 -1.00977,1.00976 -0.0854,0.25637 -0.0902,1.12423 -0.0742,2.06446 -0.75581,-0.2352 -1.49895,-0.49911 -2.2168,-0.8125 -2.98005,-0.64713 -2.37739,-4.29413 -5.65235,-4.44922 -0.28721,-0.0136 -0.61645,0.0116 -0.96875,0.0566 5.12026,-3.07873 0.68916,-0.61464 1.8418,-2.91992 0.42591,-0.85184 1.59361,-1.16769 2.01953,-2.01953 0.0264,-0.0528 0.0264,-2.97841 0,-3.03125 -0.21296,-0.42592 -0.7968,-0.58385 -1.00976,-1.00977 -0.15059,-0.30117 0.23809,-0.77166 0,-1.00976 -0.5324,-0.5324 -1.48909,-0.47933 -2.02149,-1.01172 -0.23809,-0.2381 0.2381,-0.77168 0,-1.00977 -0.23809,-0.2381 -0.67304,0 -1.00976,0 l -1.00977,0 c -1.91606,0 -4.54503,-0.50575 -6.06055,1.00977 -0.23809,0.23809 0.2381,0.77363 0,1.01172 -0.23809,0.2381 -0.70859,-0.15058 -1.00976,0 -0.42592,0.21296 -0.58581,0.7968 -1.01172,1.00976 -0.30117,0.15059 -0.77167,-0.23809 -1.00977,0 -9.6e-4,9.7e-4 0.002,3.02472 0,3.0293 -0.15058,0.45175 -0.85917,0.55997 -1.00976,1.01172 -0.0189,0.0566 -0.0715,3.34234 -0.0488,5.05078 -6.38356,-4.5e-4 -12.76543,-3.9e-4 -19.14453,0 0.15059,-0.30117 0,-0.675 0,-1.01172 l 0,-6.06055 0,-1.00976 c 0,-0.33672 0.15059,-0.7086 0,-1.00977 -0.21296,-0.42591 -0.79681,-0.58384 -1.00977,-1.00976 -0.69668,-1.39336 1.22374,-0.90474 -1.00976,-2.02149 -0.30117,-0.15059 -0.77168,0.23809 -1.00977,0 -0.2381,-0.2381 0.23809,-0.77166 0,-1.00976 -0.0595,-0.0595 -0.13138,-0.0885 -0.21093,-0.0996 z m -47.78516,187.23828 -2.97461,1.48633 c 2.41922,1.19713 2.94535,0.17579 2.97461,-1.48633 z m -2.97461,1.48633 c -0.0616,-0.0305 -0.10584,-0.0408 -0.16992,-0.0742 -0.51517,-3.51718 -0.34924,-0.4617 -0.37696,0.34765 l 0.54688,-0.27343 z M 380.82812,453.3418 c 0.0817,-0.32667 0.33673,-1.00977 0,-1.00977 -0.33672,0 -0.23809,0.77167 0,1.00977 z"
           id="path4603"
           inkscape:connector-curvature="0" />
        <path
           style="fill:none;fill-rule:evenodd;stroke:#000000;stroke-width:10;stroke-linecap:butt;stroke-linejoin:miter;stroke-miterlimit:4;stroke-dasharray:none;stroke-opacity:1"
           d="m 472.75139,501.82907 c -4.25232,0.0539 -8.56218,-0.45053 -12.58179,1.00432 -3.44969,-0.15708 -6.47331,-0.0524 -9.49574,1.17097 -2.28874,1.94784 -6.17802,4.62968 -5.24064,8.51963 1.0695,4.37663 2.16443,8.68366 5.27423,11.77739 1.66679,2.81227 5.57642,1.45694 8.41826,2.91302 3.85422,-0.4761 7.90163,0.27723 11.66403,-0.29694 3.76502,-1.62139 8.10876,0.33346 11.21081,-3.03078 0.93685,-0.67466 2.25845,-0.99224 3.92063,-1.13632 0.57415,-1.87773 3.61491,-2.76242 3.94385,-5.30542 1.79082,1.96067 0.66826,-3.84885 1.64927,-4.64681 -2.76306,0.32823 -3.39279,-3.38464 -5.73202,-4.10471 1.33695,-2.96723 -4.51908,-2.78202 -3.00929,-4.66545 -4.04031,0.19348 -6.38393,-3.61912 -10.32596,-2.09976 -2.21367,0.51322 -4.46327,1.32517 -6.76671,0.91088"
           id="path4607"
           inkscape:connector-curvature="0" />
        <ellipse
           style="fill:#f2f2f2;fill-opacity:1;stroke:#000000;stroke-width:10;stroke-miterlimit:4;stroke-dasharray:none;stroke-opacity:1"
           id="path4620"
           cx="468.71078"
           cy="513.4458"
           rx="9.0913725"
           ry="8.586297" />
      </g>
      <path
         sodipodi:nodetypes="ccccccccccc"
         inkscape:connector-curvature="0"
         id="path4649"
         d="m 406.08132,524.05242 c -3.42348,-0.27901 -6.67904,0.12291 -9.82894,0.98115 -2.17692,0.11644 -0.95574,3.03622 -3.38231,3.27539 -0.47497,4.46317 -6.15092,5.17274 -5.53061,9.9642 -2.61725,2.86596 -1.11062,7.01579 -1.35649,10.46958 -1.77391,2.65043 -0.99219,6.17157 -1.08349,9.58486 -0.80547,1.67608 3.98295,1.28825 1.58745,2.39475 1.52399,1.37411 2.79941,2.99381 4.54094,3.16621 -0.84506,2.56636 2.72601,1.10049 2.63687,3.79758 2.57567,-0.30608 6.99305,0.008 8.28091,-0.5873 2.40382,1.59226 3.50221,-2.92184 5.57456,-3.96332"
         style="fill:none;fill-rule:evenodd;stroke:#000000;stroke-width:10;stroke-linecap:butt;stroke-linejoin:miter;stroke-miterlimit:4;stroke-dasharray:none;stroke-opacity:1" />
    </g>
    <path
       style="fill:none;fill-rule:evenodd;stroke:#000000;stroke-width:0.43220848px;stroke-linecap:butt;stroke-linejoin:miter;stroke-opacity:1"
       d="m -391.11121,169.34349 c 3.59196,-0.15123 6.51283,0.18864 10.10479,0.18864 1.38877,0 2.65314,-0.18864 4.04191,-0.18864 2.72871,0 6.3663,0.30453 9.09431,0.37729 1.00032,0.0267 2.0347,-0.0311 3.03143,0 2.10128,0.0654 4.01916,0.26506 6.06287,0.37727 4.70498,0.25834 9.5759,0.42273 14.14669,0.75457 1.56962,0.11395 2.53559,0.42531 4.04192,0.56591 0.60252,0.0562 1.46044,-0.0698 2.02096,0 0.62667,0.078 0.67364,0.25152 1.01047,0.37729 1.01048,0.37728 1.77809,0.78087 3.03143,1.13183 0.79269,0.22197 2.02095,0.37728 3.03144,0.56593 0.33682,0.0628 0.67365,0.12575 1.01048,0.18863 0.33683,0.0629 0.58442,0.14888 1.01047,0.18864 0.30127,0.0281 0.77231,-0.0444 1.01048,0 0.23818,0.0445 -0.23817,0.14418 0,0.18864 0.23818,0.0445 0.67365,0 1.01049,0 3.54862,0 0.80119,0.0889 3.03142,-0.18864 0.62668,-0.078 1.37512,-0.11629 2.02096,-0.18864 1.04138,-0.11664 1.977,-0.26479 3.03143,-0.37728 1.30788,-0.13951 2.83686,-0.20856 4.04192,-0.37728 1.5243,-0.21342 2.61782,-0.51824 4.04192,-0.75455 1.61196,-0.2675 3.52733,-0.46986 5.05238,-0.75457 1.52504,-0.2847 2.11286,-0.76314 4.04191,-0.94319 1.8076,-0.16873 4.04192,0 6.06287,0 1.68413,0 3.39118,0.0516 5.0524,0 0.46986,-0.0146 0.55857,-0.16052 1.01046,-0.18864 0.6391,-0.0398 1.34732,0 2.02096,0 1.34731,0 2.70815,-0.0356 4.04191,0 1.05444,0.0281 1.99811,0.14041 3.03143,0.18864 0.32679,0.0152 0.67367,0 1.01049,0 1.3473,0 2.69461,0 4.04192,0 0.67365,0 1.36038,-0.0247 2.02095,0 1.04445,0.0389 1.96629,0.18863 3.03143,0.18863 1.38877,0 2.65885,-0.16516 4.04192,-0.18863 2.34809,-0.0398 4.71556,0 7.07335,0 2.02095,0 4.06222,-0.0534 6.06286,0 0.47156,0.0126 0.54339,0.17119 1.01048,0.18863 1.32114,0.0493 2.6946,0 4.04191,0 0.67365,0 1.39549,-0.0468 2.02096,0 1.12759,0.0842 1.94521,0.27589 3.03144,0.37729 0.95268,0.0889 2.02094,0.12576 3.03142,0.18863 1.01049,0.0629 2.00728,0.13401 3.03144,0.18864 1.33535,0.0712 2.76544,0.0865 4.04192,0.18864 1.11624,0.0893 1.8793,0.30559 3.03143,0.37728 0.95862,0.0596 2.04057,-0.037 3.03143,0 0.73854,0.0275 1.34731,0.12576 2.02095,0.18865 1.01048,0.0628 1.98079,0.15595 3.03144,0.18863 0.99673,0.031 2.03111,-0.0266 3.03144,0 1.3748,0.0367 2.66386,0.15648 4.04191,0.18864 3.00802,0.0702 6.08141,-0.0625 9.0943,0 1.38027,0.0286 2.65314,0.18864 4.04192,0.18864 1.71748,0 3.33996,-0.16404 5.05239,-0.18864 5.37333,-0.0772 10.8114,0.1111 16.16764,0 0.47344,-0.01 0.58443,-0.14887 1.01049,-0.18864 0.60253,-0.0562 1.48202,0.0755 2.02095,0 5.21202,-0.72974 2.10891,-1.09381 12.12573,-1.32047 2.64363,-0.0598 39.78796,0.0499 44.46104,0 5.08881,-0.0543 10.06007,-0.37729 15.15718,-0.37729 5.09709,0 10.076296,0.3014 15.157166,0.37729 3.357533,0.0502 6.73652,0 10.10478,0 8.420651,0 16.841302,0 25.261953,0 3.705087,0 7.410172,0 11.115259,0 2.694609,0 5.407674,-0.0588 8.083825,0 3.084112,0.0677 6.01019,0.30953 9.094303,0.37727 2.676152,0.0588 5.389217,0 8.083825,0 2.694608,0.12576 5.344077,0.29204 8.083824,0.37729 1.3289727,0.0414 2.6946083,0 4.0419126,0 1.0104781,0 2.0209562,0 3.0314343,0 0.673652,0 1.3674177,-0.0305 2.0209561,0 0.7306783,0.0341 1.290278,0.15453 2.02095625,0.18863 0.65353849,0.0304 1.36741765,-0.0304 2.02095615,0 0.7306782,0.0341 1.290278,0.15454 2.0209563,0.18865 1.307077,0.061 2.7637473,-0.0796 4.0419124,0 0.4518994,0.0281 0.6736521,0.12575 1.010478,0.18863 0.6736521,0.12576 1.2040329,0.28578 2.0209559,0.37728 0.913348,0.10231 2.042479,0.11479 3.031435,0.18864 1.398594,0.10444 2.694608,0.25152 4.041912,0.37728 2.020957,0.18865 4.041912,0.37728 6.062868,0.56592 0.673652,0.0629 1.30644,0.14418 2.020956,0.18864 0.319542,0.0199 0.673653,0 1.01048,0 1.010477,0 2.020956,0 3.031433,0 2.020955,0 4.041913,0 6.062869,0 0.379614,0 5.027172,0.005 5.05239,0 0.238173,-0.0445 -0.301267,-0.16052 0,-0.18864 0.1581,-0.0147 4.769888,0 5.052391,0 4.378738,0 8.757477,0 13.136214,0 4.041913,0 8.083825,0 12.125739,0 1.010477,0 2.020956,0 3.031433,0 0.336827,0 0.709213,0.0281 1.010479,0 0.426055,-0.0397 0.558578,-0.16052 1.010477,-0.18864 0.678246,-0.0422 6.24064,0.0173 7.073348,0 2.036301,-0.0423 4.026567,-0.1464 6.062868,-0.18863 1.326253,-0.0275 6.090938,0.0367 7.073346,0 8.598689,-0.32106 16.134199,-0.8892 24.251479,-1.50913 3.07035,-0.23448 6.06287,-0.50303 9.0943,-0.75456 3.03144,-0.25152 5.86513,-0.61271 9.0943,-0.75455 2.62298,-0.11523 5.41003,0.0624 8.08383,0 20.08888,-0.46879 -2.00212,-0.37729 14.14669,-0.37729 3.70509,0 7.41017,0 11.11526,0 1.3473,0 2.79097,0.0934 4.04192,0 0.69929,-0.0522 0.33681,-0.3144 1.01047,-0.37727 0.90381,-0.0843 2.02096,0 3.03144,0 0.67364,0 1.34731,0 2.02095,0 2.35778,0 4.71557,0 7.07335,0 1.01047,0 2.04058,-0.037 3.03144,0 0.73853,0.0276 1.3473,0.12576 2.02094,0.18863 1.34732,0.0629 2.66711,0.15198 4.04192,0.18864 6.4839,0.17292 0,-0.46111 11.11526,0 0.73523,0.0304 0.38381,0.29929 1.01048,0.37729 1.97142,0.24535 1.91646,-0.0845 3.03143,-0.18864 0.30127,-0.0281 0.67365,0 1.01048,0 0.67366,0 1.3473,0 2.02095,0 2.35778,0 4.71557,0 7.07335,0 32.74813,0 -13.08085,-0.0881 29.30387,0.37727 5.71616,0.0628 11.45208,0 17.17812,0 5.05238,0 10.1048,0 15.15718,0 5.05238,0 10.13568,-0.10416 15.15717,0 13.88851,0.28809 8.81665,0.86794 21.22004,0.56592 4.78211,-0.11644 9.32408,-0.56592 14.14669,-0.56592 3.8404,0 7.27486,0.56592 11.11527,0.56592 4.1663,0 7.99442,-0.46532 12.12573,-0.56592 3.67397,-0.0895 7.41017,0 11.11525,0 1.68413,0 3.36826,0 5.0524,0 2.02095,0 4.04191,0 6.06286,0 1.01047,0 2.04058,-0.037 3.03143,0 0.73855,0.0276 1.26779,0.18865 2.02096,0.18865 0.75317,0 1.28242,-0.16107 2.02096,-0.18865 1.65142,-0.0617 3.36827,0 5.05239,0 0.67366,0 1.38188,0.0398 2.02096,0 0.4519,-0.0281 0.53413,-0.18863 1.01048,-0.18863 0.75316,0 1.28242,0.16106 2.02096,0.18863 0.99085,0.037 2.05112,-0.0458 3.03142,0 0.46213,0.0216 0.54836,0.16708 1.01049,0.18865 3.84968,0.17967 3.95731,-0.33407 7.07335,-0.18865 2.06666,0.0964 3.96158,0.3119 6.06286,0.37729 1.99346,0.062 4.05195,-0.0376 6.06287,0 1.38188,0.0258 2.67203,0.14601 4.04191,0.18863 2.43744,0.0758 3.37184,-0.12584 6.06288,-0.18863 1.33689,-0.0312 2.6946,0 4.0419,0 9.32265,0 -1.27691,-0.061 8.08383,0.18863 2.00064,0.0534 4.06941,-0.0621 6.06287,0 1.05064,0.0327 1.99809,0.14041 3.03142,0.18864 0.32678,0.0152 0.67626,0.008 1.01049,0 2.36332,-0.0551 4.69162,-0.18864 7.07335,-0.18864 2.71558,0 5.37131,0.16453 8.08381,0.18864 4.37379,0.0388 8.76718,-0.0544 13.13622,0 15.87318,0.19756 17.93123,0.46359 33.34578,0.9432 4.69862,0.1462 9.48338,0.19591 14.1467,0.37728 3.44264,0.1339 6.68384,0.41386 10.10478,0.56592 3.66342,0.16284 7.51259,0.17259 11.11526,0.37728 4.18902,0.23801 8.01697,0.66061 12.12573,0.9432 2.30095,0.15825 4.72965,0.24266 7.07334,0.37728 2.03608,0.11696 4.01456,0.26803 6.06287,0.37728 0.32387,0.0173 0.69094,-0.0199 1.01049,0 0.71451,0.0445 1.29028,0.15454 2.02095,0.18865 0.65354,0.0304 1.3473,0 2.02096,0 2.02095,0 4.04192,0 6.06287,0 0.45508,0 2.72391,-0.0287 3.03143,0 0.42606,0.0397 0.55858,0.16051 1.01048,0.18863 0.63908,0.0398 1.3473,0 2.02096,0 1.01047,0 2.02095,0 3.03142,0 0.33683,0 0.69094,-0.0199 1.0105,0 0.7145,0.0445 1.28241,0.16106 2.02094,0.18864 0.99086,0.037 2.02096,0 3.03144,0 1.01047,0 2.09322,0.0701 3.03143,0 0.88455,-0.0661 1.28907,-0.26342 2.02096,-0.37727 1.29378,-0.20128 2.77448,-0.35889 4.0419,-0.56593 14.63027,-2.38982 -3.74488,0.38285 7.07335,-1.13184 0.84621,-0.11848 2.20455,-0.48874 3.03144,-0.56592 0.30127,-0.0281 0.67365,0 1.01048,0 0.33683,0 0.67366,0 1.01047,0 2.02096,0 4.04191,0 6.06288,0 1.3473,0 2.6946,0 4.04192,0 1.3473,0 2.705,-0.0312 4.0419,0 1.37804,0.0321 2.6671,0.15198 4.04192,0.18865 1.00032,0.0266 2.02095,0 3.03143,0 2.35778,0 4.71556,0 7.07334,0 1.68414,0 3.36827,0 5.05239,0 0.33682,0 0.77231,0.0444 1.01049,0 0.23815,-0.0445 -0.15064,-0.1324 0,-0.18865 0.21303,-0.0796 0.85985,-0.10428 1.01047,-0.18864 0.21303,-0.11931 -0.21303,-0.25797 0,-0.37728 0.0418,-0.0234 2.85808,-0.54974 3.03144,-0.56591 0.30126,-0.0281 0.69093,0.0199 1.01048,0 2.12199,-0.13206 3.94085,-0.43388 6.06287,-0.56593 0.90943,-0.0566 2.122,0.0566 3.03143,0 0.4519,-0.0281 0.58442,-0.14887 1.01048,-0.18864 0.30127,-0.0281 0.67364,0 1.01047,0 0.67366,-0.0629 1.41842,-0.10427 2.02097,-0.18864 0.76214,-0.10671 1.2588,-0.27056 2.02095,-0.37727 4.08379,-0.57179 0.47999,-0.0299 3.03143,-0.18865 0.71451,-0.0444 1.32166,-0.13642 2.02095,-0.18863 2.67201,-0.19954 5.50981,-0.32567 8.08383,-0.56593 1.50633,-0.1406 2.49395,-0.44207 4.04191,-0.56592 0.92878,-0.0743 2.04058,0.037 3.03144,0 0.73854,-0.0275 1.29028,-0.15453 2.02096,-0.18863 0.65353,-0.0305 1.3473,0 2.02095,0 2.69461,0 5.38922,0 8.08382,0 2.35778,0 4.71557,0 7.07335,0 0.67366,0 1.3473,0 2.02095,0 0.67366,0 1.38188,-0.0398 2.02097,0 0.45189,0.0281 0.58442,0.14887 1.01047,0.18863 0.30127,0.0281 0.67366,0 1.01048,0 0.33682,0.12576 0.47791,0.27786 1.01049,0.37729 0.23816,0.0445 0.70921,-0.0281 1.01046,0 0.85212,0.0795 1.16885,0.29773 2.02097,0.37727 0.30125,0.0281 0.70921,-0.0281 1.01047,0 0.42606,0.0397 0.53413,0.18865 1.01048,0.18865 0.19494,0 1.53031,-0.31622 2.02096,-0.37729 0.62667,-0.078 1.3473,-0.12576 2.02096,-0.18863 0.67365,-0.0629 1.30643,-0.14418 2.02095,-0.18865 0.31954,-0.0199 0.67365,0 1.01048,0 0.67364,-0.0629 1.3473,-0.12576 2.02095,-0.18864"
       id="path4696"
       inkscape:connector-curvature="0" />
    <g
       style="font-style:normal;font-weight:normal;font-size:128.27706909px;line-height:125%;font-family:sans-serif;letter-spacing:0px;word-spacing:0px;fill:#000000;fill-opacity:1;stroke:#000000;stroke-width:7.66745676;stroke-linecap:butt;stroke-linejoin:miter;stroke-opacity:1;stroke-miterlimit:4;stroke-dasharray:none;filter:url(#filter5657)"
       id="text5612"
       transform="matrix(0.65210671,0,0,0.65210671,149.46232,210.65911)">
      <path
         d="m 684.61267,668.87846 7.22308,-53.88548 92.6855,12.42404 -0.74894,5.5872 -87.09829,-11.67509 -6.47415,48.29827 -5.5872,-0.74894 z"
         style="font-style:normal;font-variant:normal;font-weight:normal;font-stretch:normal;font-family:Sawasdee;-inkscape-font-specification:Sawasdee;stroke-width:7.66745676;stroke-miterlimit:4;stroke-dasharray:none;stroke:#000000;stroke-opacity:1"
         id="path5629"
         inkscape:connector-curvature="0" />
      <path
         d="m 765.49985,722.7883 -2.39226,5.10439 -52.57526,-24.64029 q -7.65659,-3.5884 -15.74357,-3.15895 -8.08699,0.42945 -14.45815,4.42997 -6.34102,4.08381 -9.47754,10.77624 -3.13652,6.69243 -2.1648,14.06514 1.00186,7.45601 5.84245,13.80584 4.87073,6.43313 12.58403,10.0481 l 52.57526,24.64029 -2.39226,5.1044 -52.57526,-24.64029 q -8.90433,-4.17317 -14.61698,-11.76178 -5.68251,-7.50532 -6.89361,-16.5812 -1.18096,-8.99258 2.67324,-17.21633 3.85419,-8.22374 11.52085,-13.06974 7.72336,-4.81941 17.15375,-5.31098 9.46052,-0.40827 18.36486,3.76489 l 52.57525,24.6403 z"
         style="font-style:normal;font-variant:normal;font-weight:normal;font-stretch:normal;font-family:Sawasdee;-inkscape-font-specification:Sawasdee;stroke-width:7.66745676;stroke-miterlimit:4;stroke-dasharray:none;stroke:#000000;stroke-opacity:1"
         id="path5631"
         inkscape:connector-curvature="0" />
      <path
         d="m 640.40331,768.52384 -9.14877,9.45051 q -7.9725,8.23544 -10.76783,18.86745 -2.83889,10.67702 0.0791,21.26064 2.87447,10.62862 11.01991,18.514 8.23544,7.9725 18.95171,10.50068 10.71771,2.61676 21.29702,-0.56697 10.53574,-3.13873 18.50824,-11.37418 l 9.14878,-9.45051 -59.08819,-57.20162 z m -0.12931,-7.97112 67.18862,65.04343 -13.06968,13.50073 q -6.7091,6.93037 -15.41842,10.7039 -8.70933,3.77354 -17.65326,4.00723 -8.89893,0.27725 -17.7682,-3.07822 -8.86928,-3.35547 -15.84465,-10.10814 -9.2705,-8.97451 -12.56723,-21.05804 -3.25172,-12.03996 -0.0815,-24.13981 3.17018,-12.09986 12.14469,-21.37035 L 640.274,760.55272 Z"
         style="font-style:normal;font-variant:normal;font-weight:normal;font-stretch:normal;font-family:Sawasdee;-inkscape-font-specification:Sawasdee;stroke-width:7.66745676;stroke-miterlimit:4;stroke-dasharray:none;stroke:#000000;stroke-opacity:1"
         id="path5633"
         inkscape:connector-curvature="0" />
      <path
         d="m 621.81763,902.24196 -5.01233,2.57959 -26.56977,-51.62702 q -3.86938,-7.5185 -10.53411,-12.11906 -6.66472,-4.60057 -14.15271,-5.32571 -7.51502,-0.64079 -14.08674,2.74133 -6.57173,3.38213 -10.30661,9.81267 -3.76191,6.51489 -3.80896,14.49921 -0.0741,8.06868 3.82397,15.64287 l 26.56977,51.62702 -5.01233,2.57959 -26.56977,-51.62702 q -4.49995,-8.74373 -4.3865,-18.24155 0.0864,-9.41346 4.6723,-17.33861 4.55885,-7.8408 12.63428,-11.9968 8.07542,-4.15601 17.10556,-3.30876 9.0588,0.90294 16.82503,6.27504 7.73921,5.45646 12.23916,14.20019 l 26.56976,51.62702 z"
         style="font-style:normal;font-variant:normal;font-weight:normal;font-stretch:normal;font-family:Sawasdee;-inkscape-font-specification:Sawasdee;stroke-width:7.66745676;stroke-miterlimit:4;stroke-dasharray:none;stroke:#000000;stroke-opacity:1"
         id="path5635"
         inkscape:connector-curvature="0" />
      <path
         d="m 502.61071,857.11507 5.48138,-0.57927 -7.8682,96.00044 -42.47823,-77.13829 -25.97675,84.37256 -27.26248,-92.28786 5.85511,-0.61876 21.54028,73.30453 24.69041,-79.26088 39.71583,72.45448 6.30265,-76.24695 z"
         style="font-style:normal;font-variant:normal;font-weight:normal;font-stretch:normal;font-family:Sawasdee;-inkscape-font-specification:Sawasdee;stroke-width:7.66745676;stroke-miterlimit:4;stroke-dasharray:none;stroke:#000000;stroke-opacity:1"
         id="path5637"
         inkscape:connector-curvature="0" />
      <path
         d="m 338.93242,855.38768 -11.95361,-5.48848 q -10.41672,-4.78282 -21.37344,-3.88628 -11.01364,0.8704 -20.02618,7.13954 -9.06945,6.24301 -13.8,16.54589 -4.78281,10.41671 -3.60632,21.36413 1.09344,10.97821 7.61176,19.89838 6.4614,8.89404 16.87811,13.67686 l 11.95361,5.48848 34.31607,-74.73852 z m 7.47518,-2.77077 -39.02048,84.98447 -17.07658,-7.84068 q -8.76598,-4.02489 -15.21919,-10.98535 -6.45321,-6.96046 -9.64569,-15.31849 -3.21861,-8.3011 -3.00108,-17.78139 0.21754,-9.48029 4.26856,-18.30319 5.38394,-11.72593 15.6853,-18.85067 10.27523,-7.06782 22.74094,-8.09857 12.46571,-1.03076 24.19164,4.35318 l 17.07658,7.84069 z"
         style="font-style:normal;font-variant:normal;font-weight:normal;font-stretch:normal;font-family:Sawasdee;-inkscape-font-specification:Sawasdee;stroke-width:7.66745676;stroke-miterlimit:4;stroke-dasharray:none;stroke:#000000;stroke-opacity:1"
         id="path5639"
         inkscape:connector-curvature="0" />
      <path
         d="m 238.39471,831.11191 -27.62835,-25.66029 -17.0431,46.14611 44.67145,-20.48582 z m -25.44429,-31.32527 31.254,29.02766 28.45531,-13.15028 4.40585,4.09201 -93.13628,42.66294 35.58487,-96.11477 4.40585,4.092 -10.9696,29.39044 z"
         style="font-style:normal;font-variant:normal;font-weight:normal;font-stretch:normal;font-family:Sawasdee;-inkscape-font-specification:Sawasdee;stroke-width:7.66745676;stroke-miterlimit:4;stroke-dasharray:none;stroke:#000000;stroke-opacity:1"
         id="path5641"
         inkscape:connector-curvature="0" />
      <path
         d="m 212.76367,754.91944 -81.22855,46.33445 -16.44826,-28.83532 q -4.99655,-8.75941 -2.10688,-18.48394 2.83527,-9.6935 11.86671,-14.84522 7.67128,-4.37586 16.387,-3.0019 8.63028,1.35059 14.16477,7.63988 l 26.45489,-42.99659 3.13448,5.49503 -26.22156,42.64717 13.06551,22.90503 38.13879,-21.75515 2.7931,4.89656 z m -45.77405,19.62066 -13.74826,-24.10197 q -3.6931,-6.47435 -11.17319,-8.33681 -7.51112,-1.91688 -14.36631,1.99347 -6.964,3.97241 -9.1916,11.44445 -2.28201,7.50307 1.47316,14.08623 l 13.65516,23.93876 33.35104,-19.02413 z"
         style="font-style:normal;font-variant:normal;font-weight:normal;font-stretch:normal;font-family:Sawasdee;-inkscape-font-specification:Sawasdee;stroke-width:7.66745676;stroke-miterlimit:4;stroke-dasharray:none;stroke:#000000;stroke-opacity:1"
         id="path5643"
         inkscape:connector-curvature="0" />
      <path
         d="m 111.00759,652.04754 5.47984,-1.32251 10.52132,43.59522 44.56942,-10.75644 -11.37361,-47.12667 5.47985,-1.32251 12.69611,52.60652 -90.904556,21.939 -12.754893,-52.85007 5.479846,-1.32251 11.432382,47.37023 29.895601,-7.21504 -10.52131,-43.59522 z"
         style="font-style:normal;font-variant:normal;font-weight:normal;font-stretch:normal;font-family:Sawasdee;-inkscape-font-specification:Sawasdee;stroke-width:7.66745676;stroke-miterlimit:4;stroke-dasharray:none;stroke:#000000;stroke-opacity:1"
         id="path5645"
         inkscape:connector-curvature="0" />
      <path
         d="m 213.78828,447.93732 -4.02668,3.7639 -51.54114,-81.37262 80.36993,35.99152 -30.08217,-82.99749 77.34851,57.24945 -4.30123,4.02053 -61.34684,-45.54232 28.03019,78.14226 -75.3437,-33.91644 40.89313,64.66121 z"
         style="font-style:normal;font-variant:normal;font-weight:normal;font-stretch:normal;font-family:Sawasdee;-inkscape-font-specification:Sawasdee;stroke-width:7.66745676;stroke-miterlimit:4;stroke-dasharray:none;stroke:#000000;stroke-opacity:1"
         id="path5647"
         inkscape:connector-curvature="0" />
      <path
         d="m 296.00754,375.79327 -5.19759,1.83469 -14.61017,-95.20786 59.20957,65.18392 5.70135,-88.09662 47.92205,83.4492 -5.55198,1.95977 -37.95335,-66.31048 -5.63556,82.82598 -55.43623,-61.26845 11.55191,75.62985 z"
         style="font-style:normal;font-variant:normal;font-weight:normal;font-stretch:normal;font-family:Sawasdee;-inkscape-font-specification:Sawasdee;stroke-width:7.66745676;stroke-miterlimit:4;stroke-dasharray:none;stroke:#000000;stroke-opacity:1"
         id="path5649"
         inkscape:connector-curvature="0" />
      <path
         d="m 395.57587,252.35673 6.44996,-0.13776 19.38624,36.48653 17.87326,-37.28236 6.44996,-0.13776 -20.99847,43.48876 26.62741,49.92682 -6.2621,0.13375 -23.42389,-43.66763 -21.41275,44.6253 -6.32472,0.13509 24.40871,-51.0169 -22.77361,-42.55384 z"
         style="font-style:normal;font-variant:normal;font-weight:normal;font-stretch:normal;font-family:Sawasdee;-inkscape-font-specification:Sawasdee;stroke-width:7.66745676;stroke-miterlimit:4;stroke-dasharray:none;stroke:#000000;stroke-opacity:1"
         id="path5651"
         inkscape:connector-curvature="0" />
      <path
         d="m 546.01994,269.97198 6.01878,1.49177 -59.23072,82.76054 -14.8185,-101.11385 5.83639,1.44657 12.4312,84.9703 49.76285,-69.55533 z"
         style="font-style:normal;font-variant:normal;font-weight:normal;font-stretch:normal;font-family:Sawasdee;-inkscape-font-specification:Sawasdee;stroke-width:7.66745676;stroke-miterlimit:4;stroke-dasharray:none;stroke:#000000;stroke-opacity:1"
         id="path5653"
         inkscape:connector-curvature="0" />
      <path
         d="m 545.43121,372.36627 -5.08446,-2.43436 40.38323,-84.34544 5.08446,2.43435 -40.38323,84.34545 z"
         style="font-style:normal;font-variant:normal;font-weight:normal;font-stretch:normal;font-family:Sawasdee;-inkscape-font-specification:Sawasdee;stroke-width:7.66745676;stroke-miterlimit:4;stroke-dasharray:none;stroke:#000000;stroke-opacity:1"
         id="path5655"
         inkscape:connector-curvature="0" />
    </g>
  </g>
</svg>
